<svg id="Layer_1" data-name="Layer 1" xmlns="http://www.w3.org/2000/svg" width="256" height="221" viewBox="0 0 256 221"><title>jumble</title><path d="M18.9,24H49v1c0,13.2-11.5,23.5-24.4,23.5S-.3,38.3-.3,24.4,11.2.4,24.3.4C35.9.4,44.4,8.2,46.7,14.9H36.5A14.8,14.8,0,0,0,24.1,8.4C13.7,8.4,8.2,17.2,8.2,24.5a16.1,16.1,0,0,0,16.4,16A15.1,15.1,0,0,0,38.2,32H18.9Z" fill="#243e85"/><path d="M54.5,1.3H68.7c5.3,0,8.6,1,11.2,3.1a14.4,14.4,0,0,1,5.5,11.2,16.3,16.3,0,0,1-4.5,11.1c-2.7,2.6-5.4,3.2-7.7,3.8l12.6,17H75.4L63.2,29.9H63V47.5H54.5ZM63,23.4h5.5c7.1,0,8.3-4.7,8.3-7.1s-1.6-7-8.3-7H63Z" fill="#243e85"/><path d="M76,58.3h6.7l19.4,46.2H92.6L87.7,92.6H71.1l-4.9,11.9H56.8ZM74,84.5H84.6L79.4,70.3h-.1Z" fill="#243e85"/><path d="M106.5,58.3H117c11.4,0,16.3,3,19,5.3,4.4,3.8,7.6,10.6,7.6,17.9s-4.3,16.3-11,20c-4.3,2.4-10.2,3-15.4,3H106.5Zm8.6,38.2h1.8c4.6,0,7.6-.3,11.2-2.3s7-7.8,7-12.7a15.4,15.4,0,0,0-5-11.4c-3.5-3.2-8-3.8-13.4-3.8h-1.6Z" fill="#243e85"/><path d="M67.2,172.3A24.1,24.1,0,1,1,43,196.5,24.2,24.2,0,0,1,67.2,172.3Zm0,40.1c8.8,0,15.6-7.5,15.6-16a15.6,15.6,0,1,0-31.2,0C51.6,204.9,58.4,212.4,67.2,212.4Z" fill="#243e85"/><path d="M92.7,173.2h8.7l8,32.3h.1l8-32.3h6.2l7.8,32.3h.1l8-32.3h8.8L135,219.4h-6.9l-7.5-30.5h-.1l-7.6,30.5h-6.8Z" fill="#243e85"/><path d="M202.1,181.1h-5.8v-7.9h14.1v46.2h-8.3Z" fill="#12aeab"/><path d="M227.5,185a12.7,12.7,0,0,1,25.4,0c0,4.6-2.7,7.3-4.2,8.8a12.4,12.4,0,0,1,6.9,11.6c0,8.5-7.4,15-15.4,15s-15.4-6.5-15.4-15a12.5,12.5,0,0,1,6.8-11.6A12,12,0,0,1,227.5,185Zm12.7,13.3a7.1,7.1,0,1,0,7.1,7.1A7.1,7.1,0,0,0,240.2,198.3Zm0-18.2a5,5,0,1,0,4.9,5A5,5,0,0,0,240.2,180.1Z" fill="#12aeab"/><path d="M8.8,148.5c.4,4.6,3.5,6.2,6.1,6.2s6.4-2.3,6.4-5.8-3.1-5.7-8.8-7.9c-3.6-1.3-11-3.5-11-13.3A13.1,13.1,0,0,1,15,114.5c5.4,0,13.3,3.8,13.7,13.2H20c-.4-4.1-2.9-5.2-5.2-5.2a4.7,4.7,0,0,0-4.8,4.7c0,4,3,4.9,7.7,6.5s12.1,4.2,12.1,14.2-7.7,14.8-15,14.8-14.5-4-15-14.2Z" fill="#243e85"/><path d="M36,115.5h8.5v18.8H61.1V115.5h8.5v46.2H61.1V142.3H44.5v19.4H36Z" fill="#243e85"/><path d="M154.6,153.9,171,138.5c4.6-4.3,5.2-7,5.2-9.1a6.6,6.6,0,0,0-6.8-7,7.2,7.2,0,0,0-6.2,3.8,11,11,0,0,0-.8,5.2h-8.3v-1.5c0-7.4,5.5-15.4,15.1-15.4a15.1,15.1,0,0,1,15.3,15.2c0,4.8-1.8,9.5-9,15.8l-9.3,8.4h18.3v7.8H154.6Z" fill="#12aeab"/><path d="M219.9,147.2c0,10-7.4,15.5-15.5,15.5-4.7,0-8.2-1.5-11.8-5.1s-3.8-5.7-3.8-10.9V130.1c0-10.9,8.3-15.6,15.8-15.6s15.3,5.1,15.3,15.6Zm-8.4-17c0-4.6-3.2-7.8-7.1-7.8s-7.3,2.8-7.3,8.1v15.7c0,7.1,4.5,8.6,7.3,8.6s7.1-1.1,7.1-8.4Z" fill="#12aeab"/></svg>